{"title":"Downsizing 2017 720p HDTS Clean Audio AAC x264 - EIE","magnet":"magnet:?xt=urn:btih:8a9fca461199e128ee9b039d1e800f0fa64e6163&dn=Downsizing+2017+720p+HDTS+Clean+Audio+AAC+x264+-+EIE&tr=udp%3A%2F%2Ftracker.leechers-paradise.org%3A6969&tr=udp%3A%2F%2Fzer0day.ch%3A1337&tr=udp%3A%2F%2Fopen.demonii.com%3A1337&tr=udp%3A%2F%2Ftracker.coppersurfer.tk%3A6969&tr=udp%3A%2F%2Fexodus.desync.com%3A6969","uploader":"samcode4u","categoryP":"video","categoryS":"hd___movies","size":"1074131970","seeders":"3","leechers":"77","description":"Downsizing 2017 720p HDTS Clean Audio AAC x264 - EIE\r\n <a href=\"\nhttps://www.imdb.com/title/tt1389072/\" rel=\"nofollow\" target=\"_NEW\">\nhttps://www.imdb.com/title/tt1389072/</a>\r\n\r\n\r\nScreenshots:\r\n <a href=\"\nhttps://lensdump.com/i/lg44T\" rel=\"nofollow\" target=\"_NEW\">\nhttps://lensdump.com/i/lg44T</a>\r\n <a href=\"\nhttps://lensdump.com/i/lgKNb\" rel=\"nofollow\" target=\"_NEW\">\nhttps://lensdump.com/i/lgKNb</a>\r\n <a href=\"\nhttps://lensdump.com/i/lg7i7\" rel=\"nofollow\" target=\"_NEW\">\nhttps://lensdump.com/i/lg7i7</a>\r\n <a href=\"\nhttps://lensdump.com/i/lgOdr\" rel=\"nofollow\" target=\"_NEW\">\nhttps://lensdump.com/i/lgOdr</a>\r\n\r\n\r\n\r\nSource: BL4CKP34RL\r\n\r\nVideo\r\nID                                       : 1\r\nFormat                                   : AVC\r\nFormat/Info                              : Advanced Video Codec\r\nFormat settings                          : CABAC / 4 Ref Frames\r\nFormat settings, CABAC                   : Yes\r\nFormat settings, RefFrames               : 4 frames\r\nCodec ID                                 : avc1\r\nCodec ID/Info                            : Advanced Video Coding\r\nDuration                                 : 2 h 8 min\r\nBit rate                                 : 1 054 kb/s\r\nMaximum bit rate                         : 5 157 kb/s\r\nWidth                                    : 1 280 pixels\r\nHeight                                   : 608 pixels\r\nDisplay aspect ratio                     : 2.105\r\nFrame rate mode                          : Constant\r\nFrame rate                               : 29.970\r\nColor space                              : YUV\r\nChroma subsampling                       : 4:2:0\r\nBit depth                                : 8 bits\r\nScan type                                : Progressive\r\nBits/(Pixel*Frame)                       : 0.045\r\nStream size                              : 966 MiB (94%)\r\n\r\nAudio\r\nID                                       : 2\r\nFormat                                   : AAC\r\nFormat/Info                              : Advanced Audio Codec\r\nFormat profile                           : LC\r\nCodec ID                                 : mp4a-40-2\r\nDuration                                 : 2 h 8 min\r\nBit rate mode                            : Variable\r\nBit rate                                 : 59.0 kb/s\r\nMaximum bit rate                         : 79.8 kb/s\r\nChannel(s)                               : 2 channels\r\nChannel positions                        : Front: L R\r\nSampling rate                            : 48.0 kHz\r\nFrame rate                               : 46.875 FPS (1024 SPF)\r\nCompression mode                         : Lossy\r\nStream size                              : 54.1 MiB (5%)\r\nLanguage                                 : English","last_updated":"2017-12-31T12:01:19.996Z","parsed":{"xt":"urn:btih:8a9fca461199e128ee9b039d1e800f0fa64e6163","dn":"Downsizing 2017 720p HDTS Clean Audio AAC x264 - EIE","tr":["udp://exodus.desync.com:6969","udp://open.demonii.com:1337","udp://tracker.coppersurfer.tk:6969","udp://tracker.leechers-paradise.org:6969","udp://zer0day.ch:1337"],"infoHash":"8a9fca461199e128ee9b039d1e800f0fa64e6163","infoHashBuffer":{"type":"Buffer","data":[138,159,202,70,17,153,225,40,238,155,3,157,30,128,15,15,166,78,97,99]},"name":"Downsizing 2017 720p HDTS Clean Audio AAC x264 - EIE","announce":["udp://exodus.desync.com:6969","udp://open.demonii.com:1337","udp://tracker.coppersurfer.tk:6969","udp://tracker.leechers-paradise.org:6969","udp://zer0day.ch:1337"],"urlList":[]}}